PathFileType	4	(X/Y/Z)	motion.trc
DataRate	CameraRate	NumFrames	NumMarkers	Units	OrigDataRate	OrigDataStartFrame	OrigNumFrames
25	25	36	9	mm	25	1	249
Frame#	Time	mPelvis	mHipR	mHipL	mKneeR	mKneeL	mAnkleR	mAnkleL	mToesR	mToesL
X1 Y1 Z1 X2 Y2 Z2 X3 Y3 Z3 X4 Y4 Z4 X5 Y5 Z5 X6 Y6 Z6 X7 Y7 Z7 X8 Y8 Z8 X9 Y9 Z9
1	0.046000	-185.749859	42.158931	2039.578438	-99.305913	-39.265100	2030.164480	-261.280358	-39.935436	2056.075335	-84.329642	-443.367183	1984.490156	-238.573968	-501.940072	2153.380632	-65.787606	-827.108979	1950.592041	-214.231178	-878.873050	2258.387566	-91.239870	-876.992166	1866.287231	-281.386018	-932.568610	2261.199951	
2	0.109000	-185.576946	42.220481	2045.702934	-98.266661	-39.092842	2037.608624	-261.200458	-40.472731	2060.548067	-85.374065	-452.674210	1998.969793	-237.863883	-501.716971	2153.232098	-68.002023	-830.168903	1986.395359	-214.218631	-878.847837	2258.443117	-90.795621	-880.149901	1900.861502	-281.530440	-932.979524	2261.306524	
3	0.156000	-185.544953	42.219486	2046.830416	-98.092727	-39.069805	2039.074183	-261.186719	-40.564746	2061.317682	-85.322857	-454.678178	2002.095461	-237.717554	-501.800418	2153.260231	-67.971736	-829.241812	1994.151831	-214.204252	-878.849924	2258.452892	-90.405397	-879.918337	1907.036662	-281.538337	-933.043122	2261.327744	
4	0.187000	-185.377568	42.115692	2049.474955	-97.656272	-39.096523	2042.723417	-261.081696	-40.762432	2062.777519	-83.776549	-459.049076	2010.353088	-237.169161	-502.730191	2154.065132	-65.729454	-829.778731	2012.062311	-213.458315	-878.821611	2258.697271	-88.303179	-880.339146	1918.064117	-281.084597	-932.798922	2261.283875	
5	0.234000	-185.123295	41.933715	2052.663088	-97.127758	-39.182130	2047.002554	-260.894030	-41.048016	2064.612389	-80.738522	-465.510726	2023.138523	-236.453384	-503.891528	2155.194759	-62.779665	-829.340875	2037.898302	-212.597385	-878.787696	2258.983612	-83.125874	-879.802883	1943.323135	-280.552208	-932.543159	2261.259317	
6	0.312000	-184.069350	41.412279	2059.201241	-95.473237	-39.578635	2055.827856	-260.180891	-41.706815	2068.037987	-74.013680	-475.167871	2047.518969	-235.280976	-505.098343	2156.999350	-51.850691	-839.905441	2101.878166	-211.732253	-878.672004	2259.279013	-51.201329	-901.324749	2063.734531	-279.814273	-932.277977	2261.238575	
7	0.343000	-182.781339	40.803932	2066.637993	-93.484044	-40.144019	2065.709352	-259.205550	-42.532917	2072.289944	-66.705264	-485.048711	2075.219870	-233.922258	-506.313384	2159.193993	-39.629940	-849.560618	2172.908783	-210.855722	-878.421307	2259.592295	-35.041742	-909.847915	2132.627010	-277.446181	-932.371140	2261.122704	
8	0.390000	-180.942208	40.096875	2075.891018	-90.745352	-40.916488	2077.749252	-257.806748	-43.565627	2077.724695	-57.832543	-497.122139	2111.034155	-232.460707	-507.387698	2161.750317	-26.342999	-861.503959	2252.787828	-209.975183	-878.125310	2259.910345	-8.778602	-930.800498	2241.277695	-274.362862	-932.610273	2260.993481	
9	0.452000	-176.613063	38.025968	2093.665361	-85.155569	-43.501917	2099.107265	-254.378438	-46.265058	2089.880466	-47.216896	-508.481324	2159.423828	-230.457559	-508.195043	2166.337729	-15.691936	-870.988965	2346.118450	-209.074154	-877.804756	2260.264397	5.003843	-938.620627	2324.366570	-267.937511	-931.325495	2257.147551	
10	0.483000	-171.759948	36.683213	2112.931967	-79.399198	-45.510225	2121.298552	-250.136912	-48.039339	2103.847027	-37.468724	-519.506872	2206.648827	-228.269339	-508.830369	2171.717644	-6.856157	-881.145537	2426.108837	-208.164483	-877.459705	2260.654926	16.317025	-946.873844	2394.851923	-261.349440	-929.972053	2253.141642	
11	0.561000	-164.440647	36.146782	2140.181065	-71.167439	-47.046456	2151.496410	-243.618339	-49.380958	2125.027895	-27.783047	-531.911612	2260.862827	-224.986300	-508.559406	2180.655479	0.606632	-893.639505	2497.627497	-207.198963	-877.076626	2261.177540	25.907811	-956.895590	2457.366943	-254.655033	-928.597271	2249.323368	
12	0.592000	-157.102108	35.750709	2167.376757	-63.139491	-48.471708	2180.981636	-236.986622	-50.484542	2146.766186	-18.850917	-542.851269	2310.430527	-221.578106	-508.090317	2190.285206	6.551203	-903.864503	2556.205988	-206.183419	-876.676619	2261.821032	33.776078	-965.114772	2508.854389	-248.018593	-927.267969	2245.697260	
13	0.655000	-147.558123	35.313327	2203.014135	-53.339861	-50.181326	2217.631578	-228.304654	-51.504031	2178.205252	-11.019137	-551.408887	2361.974478	-217.454568	-507.335782	2204.689503	11.657195	-913.018167	2607.319117	-205.079094	-876.226187	2262.709618	40.405504	-972.477019	2553.874493	-241.791204	-926.003754	2242.541552	
14	0.686000	-138.308123	34.811936	2237.591267	-44.064246	-51.945046	2252.552032	-219.731957	-52.505285	2210.245609	-4.545727	-558.924437	2408.584356	-213.198140	-507.072151	2220.370531	15.745889	-920.843482	2651.168585	-203.932047	-875.741661	2263.771534	45.955315	-978.834987	2592.889786	-235.896736	-924.798131	2239.691973	
15	0.748000	-128.869325	33.981558	2273.393393	-34.942821	-54.001488	2287.828684	-211.118221	-53.718310	2244.931936	0.760265	-566.817224	2454.786777	-208.980337	-507.370532	2238.172054	19.192401	-927.433133	2688.807964	-202.738687	-875.260234	2265.039206	50.808504	-984.301805	2626.953602	-230.423048	-923.718631	2237.195015	
16	0.795000	-118.697681	32.909993	2314.739704	-25.395289	-56.644879	2328.547478	-202.067286	-55.004880	2286.473751	5.992264	-572.723806	2502.170801	-205.567271	-508.301258	2259.852886	22.204803	-932.946384	2721.997023	-201.538950	-874.911964	2267.150640	55.033408	-989.034653	2657.438040	-225.769490	-922.975540	2235.499382	
17	0.826000	-109.535649	31.939369	2352.289915	-16.991835	-58.995213	2365.092993	-193.882152	-56.039006	2325.334311	10.403119	-577.507555	2543.533087	-202.515528	-510.143578	2283.305407	24.933804	-937.707722	2751.531124	-200.735494	-874.697387	2270.200491	58.523677	-993.170381	2684.771061	-221.995428	-922.395766	2234.267712	
18	0.858000	-101.123601	31.214405	2387.611866	-9.530963	-60.923565	2399.369240	-186.463818	-56.630462	2362.024307	14.137740	-581.483781	2580.123901	-200.483620	-512.363613	2308.436632	27.359661	-941.961825	2778.102636	-200.662777	-874.840915	2274.338245	61.125632	-996.765614	2709.007025	-218.814746	-922.006667	2233.389854	
19	0.889000	-93.436450	30.844055	2420.607328	-2.845690	-62.355712	2431.504965	-179.761589	-56.756590	2396.494627	17.345879	-584.740400	2612.316370	-199.382186	-515.046358	2333.544016	29.323200	-945.722044	2801.904917	-202.276126	-876.096368	2281.028748	62.808380	-999.775708	2730.114222	-216.485560	-922.334373	2233.762980	
20	0.904000	-86.580753	30.733533	2451.348782	2.965450	-63.474149	2461.394548	-173.915043	-56.479331	2428.855181	20.065853	-587.454379	2640.576363	-199.463889	-518.543124	2359.135628	30.672809	-948.941231	2822.640181	-206.824228	-879.668653	2292.887688	63.394658	-1002.173185	2747.723341	-216.497496	-924.661160	2237.823725	
21	0.967000	-80.599144	30.788740	2479.354858	7.931425	-64.298414	2488.810778	-168.883607	-56.002215	2458.452702	22.408457	-589.759886	2665.599346	-200.738549	-523.102105	2385.782003	31.380225	-951.502740	2840.256214	-214.327961	-885.822415	2311.563969	62.907249	-1003.854752	2761.971235	-221.722931	-931.342006	2251.793146	
22	1.014000	-75.411946	30.889070	2505.050421	12.131680	-64.982109	2513.910294	-164.617106	-55.404857	2485.776424	24.371367	-591.677547	2688.021421	-203.251675	-528.339446	2413.284063	31.419665	-953.363180	2854.464531	-226.504341	-894.365668	2340.407133	61.496358	-1004.794240	2772.838116	-233.094975	-939.740002	2275.830030	
23	1.029000	-70.904933	31.006999	2528.595209	15.695164	-65.532751	2537.009478	-160.957456	-54.757100	2510.778427	26.030276	-593.227327	2708.260536	-206.750870	-533.187270	2441.663504	30.887920	-954.451680	2865.420580	-240.853876	-902.893007	2376.663208	59.304513	-1004.952192	2780.625343	-252.418905	-951.288044	2316.907406	
24	1.060000	-66.994898	31.272091	2550.225973	18.740207	-65.859124	2558.233500	-157.819763	-53.993016	2533.672094	27.460182	-594.512284	2726.454020	-211.400330	-537.160933	2470.907450	29.793914	-954.900026	2873.075724	-255.616665	-909.395397	2419.375658	56.413785	-1004.504681	2785.361052	-274.048477	-961.891353	2368.243456	
25	1.107000	-63.849419	31.418037	2570.790052	21.049142	-66.220321	2578.055620	-155.557796	-53.356349	2555.814266	28.627081	-595.527411	2742.880821	-218.819171	-539.410651	2507.546186	28.246081	-954.776347	2877.688885	-274.544597	-917.387784	2485.105753	53.031851	-1003.523946	2787.451267	-300.902575	-972.301960	2443.326950	
26	1.138000	-61.195880	31.644117	2589.471102	22.887079	-66.428892	2596.201897	-153.745130	-52.703392	2575.767517	29.521843	-596.241951	2757.581711	-226.225734	-541.463077	2542.511463	26.311198	-954.176664	2879.557371	-294.704437	-924.654007	2558.860302	49.211528	-1002.141237	2787.240267	-328.331500	-981.494129	2524.974823	
27	1.201000	-59.081361	31.891145	2606.508493	24.289867	-66.564627	2612.679005	-152.384743	-52.069727	2593.894243	30.092038	-596.610844	2770.658493	-234.248877	-543.470085	2578.870773	24.116492	-953.251123	2878.934622	-312.081158	-929.083228	2627.066851	45.089927	-1000.491500	2784.938097	-352.973372	-988.189757	2606.489897	
28	1.248000	-57.402194	32.138571	2621.913433	25.234519	-66.598170	2627.707005	-151.357323	-51.475827	2610.178232	30.285716	-596.562803	2782.102108	-241.924047	-544.839978	2613.772869	21.755662	-951.947212	2876.296520	-327.905536	-932.796538	2700.295925	41.054633	-998.581350	2781.141281	-373.813868	-993.649781	2679.069757	
29	1.263000	-56.307666	32.410096	2636.152983	25.656531	-66.562444	2641.526699	-150.784284	-50.888129	2625.060081	30.094916	-596.241117	2792.116404	-249.602199	-545.285821	2647.609234	19.318132	-950.515151	2871.984482	-340.326875	-933.934093	2766.685247	36.947887	-996.575534	2775.995255	-392.390519	-997.181892	2756.098747	
30	1.279000	-55.814404	32.740109	2649.374008	25.561336	-66.440724	2654.271364	-150.748983	-50.288334	2638.800144	29.483350	-595.624745	2800.693035	-257.014424	-545.695424	2680.482864	16.911548	-949.153721	2866.514683	-350.461960	-933.863699	2832.064867	32.975629	-994.706213	2770.040751	-407.647848	-999.519229	2826.333284	
31	1.341000	-56.715973	33.135522	2662.410975	24.209186	-66.137999	2666.681290	-151.970312	-49.654379	2652.274370	28.243346	-594.764829	2808.082342	-264.914215	-545.744121	2714.484453	14.665922	-947.914004	2860.499620	-358.023763	-933.145702	2896.877050	29.159896	-993.000686	2763.792753	-419.574887	-1000.245810	2898.000717	
32	1.372000	-58.671940	33.452183	2674.873352	21.676289	-65.791614	2678.638697	-154.173121	-49.098000	2665.147781	26.461748	-593.635380	2814.192057	-272.510439	-545.666516	2746.703625	12.504833	-946.697414	2853.848696	-363.585681	-931.860864	2953.407288	25.451429	-991.392672	2757.153988	-429.088891	-1000.734806	2963.137627	
33	1.435000	-61.667811	33.771046	2686.831236	18.375533	-65.354019	2689.924240	-157.316610	-48.634231	2677.471161	23.846328	-592.088521	2819.006920	-279.715508	-545.623243	2777.010679	10.427779	-945.491254	2846.769333	-367.568612	-930.259764	3002.011776	21.791197	-989.833415	2750.235319	-436.581433	-1001.107216	3016.989708	
34	1.482000	-67.868248	33.906125	2699.903965	12.473702	-64.934127	2701.841354	-163.570106	-48.549693	2690.967321	20.504124	-591.112733	2823.370695	-287.044495	-545.763969	2806.332827	8.490046	-944.482327	2839.845896	-370.920092	-928.825676	3042.911291	18.290451	-988.503397	2743.566275	-442.721248	-1001.474023	3063.003063	
35	1.513000	-75.850926	33.923369	2713.176489	4.907760	-64.545564	2713.914633	-171.511844	-48.704807	2704.732895	16.549181	-590.363860	2827.112436	-293.841392	-545.841992	2832.761049	6.679726	-943.553984	2832.942009	-373.859167	-927.548647	3078.081846	14.994154	-987.304628	2737.029076	-447.979718	-1001.736999	3102.565289	
36	1.560000	-85.892886	34.003492	2726.855516	-4.532510	-64.088583	2726.443768	-181.488052	-48.893996	2718.973160	11.796967	-589.895189	2830.204248	-300.340474	-546.001256	2856.498718	4.998112	-942.653358	2826.197147	-376.539886	-927.061200	3109.346390	11.806518	-986.177385	2730.739832	-452.767611	-1002.139091	3137.155771	
